<svg width="109" height="36" viewBox="0 0 109 36" fill="none" xmlns="http://www.w3.org/2000/svg">
<rect x="0.95" y="0.45" width="107.1" height="35.1" rx="5.85" stroke="#012811" stroke-width="0.9"/>
<path d="M22.7941 18.271C22.8136 16.7581 23.6261 15.3265 24.915 14.5341C24.1019 13.3728 22.74 12.6365 21.323 12.5922C19.8117 12.4336 18.3465 13.4965 17.5764 13.4965C16.7914 13.4965 15.6056 12.6079 14.3287 12.6342C12.6644 12.688 11.1128 13.6342 10.3031 15.0893C8.56252 18.1029 9.86085 22.5318 11.5282 24.9678C12.3624 26.1606 13.3374 27.493 14.6131 27.4457C15.8614 27.394 16.3277 26.6497 17.8345 26.6497C19.3274 26.6497 19.7648 27.4457 21.0664 27.4157C22.406 27.3939 23.2499 26.2176 24.0549 25.0135C24.6543 24.1635 25.1155 23.2242 25.4215 22.2302C23.8473 21.5644 22.796 19.9802 22.7941 18.271Z" fill="#012811"/>
<path d="M20.3356 10.9902C21.066 10.1134 21.4258 8.98644 21.3387 7.84863C20.2229 7.96583 19.1921 8.49913 18.4519 9.34228C17.728 10.1661 17.3513 11.2732 17.4226 12.3675C18.5388 12.379 19.6362 11.8602 20.3356 10.9902Z" fill="#012811"/>
<path d="M73.874 17.2808V19.3427H72.5816V20.6949H73.874V25.2894C73.874 26.8583 74.5837 27.4858 76.3692 27.4858C76.683 27.4858 76.9818 27.4484 77.2433 27.4036V26.0664C77.0192 26.0888 76.8772 26.1037 76.6307 26.1037C75.8313 26.1037 75.4802 25.7302 75.4802 24.8785V20.6949H77.2433V19.3427H75.4802V17.2808H73.874Z" fill="#012811"/>
<path d="M81.7917 27.5979C84.1674 27.5979 85.6242 26.0066 85.6242 23.3694C85.6242 20.7472 84.16 19.1485 81.7917 19.1485C79.4161 19.1485 77.9518 20.7472 77.9518 23.3694C77.9518 26.0066 79.4086 27.5979 81.7917 27.5979ZM81.7917 26.171C80.3947 26.171 79.6103 25.1475 79.6103 23.3694C79.6103 21.6064 80.3947 20.5754 81.7917 20.5754C83.1813 20.5754 83.9732 21.6064 83.9732 23.3694C83.9732 25.14 83.1813 26.171 81.7917 26.171Z" fill="#012811"/>
<path d="M86.8706 27.441H88.4768V22.6373C88.4768 21.4943 89.336 20.7248 90.5537 20.7248C90.8376 20.7248 91.3157 20.7771 91.4502 20.8219V19.2381C91.2783 19.1933 90.972 19.1709 90.733 19.1709C89.6721 19.1709 88.7682 19.7536 88.5366 20.553H88.4171V19.3054H86.8706V27.441Z" fill="#012811"/>
<path d="M95.4383 20.5156C96.6262 20.5156 97.4031 21.3449 97.4405 22.6224H93.3316C93.4212 21.3524 94.2505 20.5156 95.4383 20.5156ZM97.433 25.2446C97.1342 25.8796 96.4693 26.2307 95.4981 26.2307C94.2131 26.2307 93.3839 25.3268 93.3316 23.8999V23.8102H99.0766V23.2499C99.0766 20.6949 97.7094 19.1485 95.4458 19.1485C93.1523 19.1485 91.6955 20.7995 91.6955 23.3993C91.6955 25.9991 93.1224 27.5979 95.4533 27.5979C97.3135 27.5979 98.6134 26.7014 98.9794 25.2446H97.433Z" fill="#012811"/>
<path d="M63.3408 24.4366C63.4647 26.4344 65.1294 27.712 67.6073 27.712C70.2554 27.712 71.9125 26.3724 71.9125 24.2353C71.9125 22.555 70.9678 21.6259 68.6758 21.0916L67.4446 20.7896C65.9889 20.4489 65.4005 19.9921 65.4005 19.1945C65.4005 18.1879 66.3141 17.5297 67.6847 17.5297C68.9855 17.5297 69.8837 18.1724 70.0463 19.2023H71.7344C71.6337 17.3207 69.9767 15.9966 67.7079 15.9966C65.2688 15.9966 63.6428 17.3207 63.6428 19.3107C63.6428 20.9522 64.5642 21.9278 66.5852 22.4002L68.0254 22.7486C69.5043 23.0971 70.1548 23.6081 70.1548 24.4599C70.1548 25.451 69.1327 26.1711 67.7389 26.1711C66.2445 26.1711 65.2069 25.4974 65.0597 24.4366H63.3408Z" fill="#012811"/>
<path d="M46.7022 19.1709C45.5965 19.1709 44.6403 19.7237 44.1472 20.6501H44.0277V19.3054H42.4812V30.1454H44.0874V26.2083H44.2144C44.6403 27.0674 45.5592 27.5755 46.7171 27.5755C48.7716 27.5755 50.0789 25.9543 50.0789 23.3694C50.0789 20.7846 48.7716 19.1709 46.7022 19.1709ZM46.2465 26.1336C44.9017 26.1336 44.0575 25.0728 44.0575 23.3769C44.0575 21.6736 44.9017 20.6128 46.2539 20.6128C47.6136 20.6128 48.4279 21.6512 48.4279 23.3694C48.4279 25.0952 47.6136 26.1336 46.2465 26.1336Z" fill="#012811"/>
<path d="M55.6993 19.1709C54.5936 19.1709 53.6374 19.7237 53.1443 20.6501H53.0248V19.3054H51.4783V30.1454H53.0845V26.2083H53.2115C53.6374 27.0674 54.5563 27.5755 55.7142 27.5755C57.7687 27.5755 59.076 25.9543 59.076 23.3694C59.076 20.7846 57.7687 19.1709 55.6993 19.1709ZM55.2436 26.1336C53.8988 26.1336 53.0547 25.0728 53.0547 23.3769C53.0547 21.6736 53.8988 20.6128 55.251 20.6128C56.6107 20.6128 57.425 21.6512 57.425 23.3694C57.425 25.0952 56.6107 26.1336 55.2436 26.1336Z" fill="#012811"/>
<path d="M39.5994 27.441H41.4423L37.4081 16.2676H35.542L31.5078 27.441H33.2887L34.3186 24.4753H38.5773L39.5994 27.441ZM36.386 18.2963H36.5176L38.136 23.0196H34.7599L36.386 18.2963Z" fill="#012811"/>
<path d="M32.5859 7.83992V13.23H34.5321C36.1383 13.23 37.0684 12.2402 37.0684 10.5182C37.0684 8.82231 36.1308 7.83992 34.5321 7.83992H32.5859ZM33.4227 8.60193H34.4387C35.5555 8.60193 36.2167 9.31165 36.2167 10.5294C36.2167 11.7658 35.5667 12.468 34.4387 12.468H33.4227V8.60193Z" fill="#012811"/>
<path d="M39.9169 13.3085C41.1048 13.3085 41.8332 12.5128 41.8332 11.1943C41.8332 9.88315 41.101 9.08379 39.9169 9.08379C38.7291 9.08379 37.997 9.88315 37.997 11.1943C37.997 12.5128 38.7254 13.3085 39.9169 13.3085ZM39.9169 12.595C39.2184 12.595 38.8262 12.0833 38.8262 11.1943C38.8262 10.3127 39.2184 9.79724 39.9169 9.79724C40.6117 9.79724 41.0077 10.3127 41.0077 11.1943C41.0077 12.0795 40.6117 12.595 39.9169 12.595Z" fill="#012811"/>
<path d="M48.0361 9.16223H47.233L46.5083 12.2663H46.4448L45.6081 9.16223H44.8386L44.0019 12.2663H43.9422L43.2138 9.16223H42.3995L43.5201 13.23H44.3456L45.1823 10.2343H45.2458L46.0862 13.23H46.9192L48.0361 9.16223Z" fill="#012811"/>
<path d="M48.961 13.23H49.7641V10.8506C49.7641 10.2156 50.1413 9.81965 50.7353 9.81965C51.3292 9.81965 51.6131 10.1446 51.6131 10.7983V13.23H52.4162V10.5966C52.4162 9.62915 51.9156 9.08379 51.0079 9.08379C50.3953 9.08379 49.9919 9.35647 49.794 9.80845H49.7342V9.16223H48.961V13.23Z" fill="#012811"/>
<path d="M53.681 13.23H54.4841V7.57471H53.681V13.23Z" fill="#012811"/>
<path d="M57.5045 13.3085C58.6923 13.3085 59.4207 12.5128 59.4207 11.1943C59.4207 9.88315 58.6886 9.08379 57.5045 9.08379C56.3166 9.08379 55.5845 9.88315 55.5845 11.1943C55.5845 12.5128 56.3129 13.3085 57.5045 13.3085ZM57.5045 12.595C56.806 12.595 56.4137 12.0833 56.4137 11.1943C56.4137 10.3127 56.806 9.79724 57.5045 9.79724C58.1992 9.79724 58.5952 10.3127 58.5952 11.1943C58.5952 12.0795 58.1992 12.595 57.5045 12.595Z" fill="#012811"/>
<path d="M61.8136 12.6212C61.3765 12.6212 61.059 12.4083 61.059 12.0422C61.059 11.6836 61.313 11.4931 61.8733 11.4557L62.8669 11.3922V11.7322C62.8669 12.2364 62.4187 12.6212 61.8136 12.6212ZM61.6081 13.2973C62.1423 13.2973 62.5868 13.0657 62.8296 12.6585H62.8931V13.23H63.6663V10.4509C63.6663 9.5918 63.0911 9.08379 62.0713 9.08379C61.1487 9.08379 60.4913 9.53203 60.4091 10.2305H61.186C61.2757 9.94292 61.5857 9.77856 62.034 9.77856C62.583 9.77856 62.8669 10.0214 62.8669 10.4509V10.8021L61.765 10.8656C60.7976 10.9253 60.2522 11.3474 60.2522 12.0795C60.2522 12.8229 60.8237 13.2973 61.6081 13.2973Z" fill="#012811"/>
<path d="M66.3916 13.2973C66.9519 13.2973 67.4263 13.0321 67.6691 12.5875H67.7326V13.23H68.5021V7.57471H67.699V9.80845H67.6392C67.4188 9.36021 66.9482 9.095 66.3916 9.095C65.3644 9.095 64.7032 9.9093 64.7032 11.1943C64.7032 12.483 65.3569 13.2973 66.3916 13.2973ZM66.6195 9.81592C67.2918 9.81592 67.7139 10.3501 67.7139 11.198C67.7139 12.0497 67.2956 12.5763 66.6195 12.5763C65.9396 12.5763 65.5325 12.0571 65.5325 11.1943C65.5325 10.3389 65.9434 9.81592 66.6195 9.81592Z" fill="#012811"/>
<path d="M73.7099 13.3085C74.8978 13.3085 75.6262 12.5128 75.6262 11.1943C75.6262 9.88315 74.894 9.08379 73.7099 9.08379C72.5221 9.08379 71.7899 9.88315 71.7899 11.1943C71.7899 12.5128 72.5183 13.3085 73.7099 13.3085ZM73.7099 12.595C73.0114 12.595 72.6192 12.0833 72.6192 11.1943C72.6192 10.3127 73.0114 9.79724 73.7099 9.79724C74.4047 9.79724 74.8006 10.3127 74.8006 11.1943C74.8006 12.0795 74.4047 12.595 73.7099 12.595Z" fill="#012811"/>
<path d="M76.6892 13.23H77.4923V10.8506C77.4923 10.2156 77.8696 9.81965 78.4635 9.81965C79.0574 9.81965 79.3413 10.1446 79.3413 10.7983V13.23H80.1444V10.5966C80.1444 9.62915 79.6439 9.08379 78.7362 9.08379C78.1236 9.08379 77.7202 9.35647 77.5222 9.80845H77.4625V9.16223H76.6892V13.23Z" fill="#012811"/>
<path d="M83.8432 8.14995V9.18091H83.197V9.85701H83.8432V12.1542C83.8432 12.9387 84.198 13.2524 85.0908 13.2524C85.2477 13.2524 85.3971 13.2338 85.5278 13.2114V12.5427C85.4158 12.5539 85.3448 12.5614 85.2215 12.5614C84.8218 12.5614 84.6463 12.3746 84.6463 11.9488V9.85701H85.5278V9.18091H84.6463V8.14995H83.8432Z" fill="#012811"/>
<path d="M86.6058 13.23H87.4089V10.8543C87.4089 10.238 87.775 9.82339 88.4324 9.82339C89.0002 9.82339 89.3028 10.1521 89.3028 10.8021V13.23H90.1059V10.6041C90.1059 9.63662 89.5717 9.08752 88.7051 9.08752C88.0925 9.08752 87.6629 9.36021 87.465 9.81592H87.4015V7.57471H86.6058V13.23Z" fill="#012811"/>
<path d="M93.003 9.76736C93.5969 9.76736 93.9854 10.182 94.0041 10.8207H91.9496C91.9945 10.1857 92.4091 9.76736 93.003 9.76736ZM94.0003 12.1318C93.8509 12.4493 93.5185 12.6249 93.0329 12.6249C92.3904 12.6249 91.9758 12.1729 91.9496 11.4595V11.4146H94.8221V11.1345C94.8221 9.85701 94.1386 9.08379 93.0067 9.08379C91.86 9.08379 91.1316 9.9093 91.1316 11.2092C91.1316 12.5091 91.845 13.3085 93.0105 13.3085C93.9406 13.3085 94.5905 12.8602 94.7736 12.1318H94.0003Z" fill="#012811"/>
</svg>
