<svg width="25" height="24" viewBox="0 0 25 24" fill="none" xmlns="http://www.w3.org/2000/svg">
<path d="M21.4737 6.7174C21.0093 7.33692 20.4479 7.87733 19.8112 8.31776C19.8112 8.47959 19.8112 8.64142 19.8112 8.81225C19.8163 11.7511 18.6424 14.5691 16.5527 16.6345C14.4629 18.6999 11.6321 19.8399 8.69491 19.7989C6.99685 19.8046 5.32053 19.4169 3.79728 18.6661C3.71514 18.6302 3.66217 18.549 3.66248 18.4593V18.3604C3.66248 18.2313 3.76709 18.1267 3.89613 18.1267C5.56528 18.0716 7.17488 17.4929 8.4972 16.4724C6.98639 16.4419 5.62705 15.5469 5.00146 14.1707C4.96987 14.0956 4.9797 14.0093 5.02743 13.9432C5.07515 13.8771 5.15386 13.8407 5.23511 13.8471C5.69428 13.8932 6.15804 13.8505 6.60106 13.7212C4.93325 13.375 3.68007 11.9904 3.50072 10.2957C3.49435 10.2144 3.53078 10.1357 3.59686 10.0879C3.66293 10.0402 3.7491 10.0303 3.82424 10.062C4.2718 10.2595 4.75495 10.3635 5.2441 10.3676C3.7827 9.40846 3.15147 7.58405 3.70741 5.92622C3.7648 5.76513 3.90267 5.64612 4.07036 5.61294C4.23804 5.57975 4.41082 5.63728 4.52518 5.76439C6.49725 7.86325 9.2069 9.11396 12.0828 9.25279C12.0092 8.95885 11.973 8.65676 11.975 8.35372C12.0019 6.76472 12.9851 5.34921 14.4643 4.76987C15.9434 4.19054 17.6258 4.56203 18.7239 5.71044C19.4723 5.56785 20.1959 5.31645 20.8716 4.96421C20.9211 4.93331 20.9839 4.93331 21.0334 4.96421C21.0643 5.01373 21.0643 5.07652 21.0334 5.12604C20.7061 5.87552 20.1532 6.50412 19.4518 6.92419C20.066 6.85296 20.6694 6.70807 21.2491 6.49264C21.2979 6.45942 21.362 6.45942 21.4108 6.49264C21.4517 6.51134 21.4823 6.54711 21.4944 6.59042C21.5065 6.63373 21.4989 6.68018 21.4737 6.7174Z" fill="black"/>
</svg>
