<svg width="53" height="52" viewBox="0 0 53 52" fill="none" xmlns="http://www.w3.org/2000/svg">
<rect x="0.333496" width="52" height="52" rx="26" fill="#EEF4F0"/>
<path fill-rule="evenodd" clip-rule="evenodd" d="M19.667 38C21.4086 38 22.8903 36.8869 23.4394 35.3333H31.8946C32.4437 36.8869 33.9254 38 35.667 38C37.4086 38 38.8903 36.8869 39.4394 35.3333H39.667C40.4034 35.3333 41.0003 34.7364 41.0003 34V29.5155C41.0003 28.7693 40.8437 28.0314 40.5407 27.3495L39.2745 24.5006C38.4185 22.5746 36.5085 21.3333 34.4008 21.3333H31.667V19.3333C31.667 16.3878 29.2792 14 26.3337 14H17.0003C14.0548 14 11.667 16.3878 11.667 19.3333V32.6667C11.667 34.1394 12.8609 35.3333 14.3337 35.3333H15.8946C16.4437 36.8869 17.9254 38 19.667 38ZM14.3337 19.3333C14.3337 17.8606 15.5276 16.6667 17.0003 16.6667H26.3337C27.8064 16.6667 29.0003 17.8606 29.0003 19.3333V32.6667H23.4394C22.8903 31.1131 21.4086 30 19.667 30C17.9254 30 16.4437 31.1131 15.8946 32.6667H14.3337V19.3333ZM38.1038 28.4325C38.2554 28.7734 38.3337 29.1424 38.3337 29.5155V31.0185C37.626 30.3851 36.6915 30 35.667 30C33.9254 30 32.4437 31.1131 31.8946 32.6667H31.667V24H34.4008C35.4547 24 36.4097 24.6206 36.8377 25.5836L38.1038 28.4325ZM18.3337 34C18.3337 33.2636 18.9306 32.6667 19.667 32.6667C20.4034 32.6667 21.0003 33.2636 21.0003 34C21.0003 34.7364 20.4034 35.3333 19.667 35.3333C18.9306 35.3333 18.3337 34.7364 18.3337 34ZM34.3337 34C34.3337 33.2636 34.9306 32.6667 35.667 32.6667C36.4034 32.6667 37.0003 33.2636 37.0003 34C37.0003 34.7364 36.4034 35.3333 35.667 35.3333C34.9306 35.3333 34.3337 34.7364 34.3337 34Z" fill="#64AB80"/>
</svg>
