<svg width="32" height="32" viewBox="0 0 32 32" fill="none" xmlns="http://www.w3.org/2000/svg">
<path opacity="0.4" d="M19 7V16C19 17.1 18.1 18 17 18H6V11.62C6.73 12.49 7.85003 13.03 9.09003 13C10.1 12.98 11.01 12.59 11.69 11.94C12 11.68 12.26 11.35 12.46 10.99C12.82 10.38 13.02 9.65997 13 8.90997C12.97 7.73997 12.45 6.71 11.64 6H18C18.55 6 19 6.45 19 7Z" fill="#FAFAFA"/>
<path d="M26 18V21C26 22.66 24.66 24 23 24H22C22 22.9 21.1 22 20 22C18.9 22 18 22.9 18 24H14C14 22.9 13.1 22 12 22C10.9 22 10 22.9 10 24H9C7.34 24 6 22.66 6 21V18H17C18.1 18 19 17.1 19 16V9H20.84C21.56 9 22.22 9.39001 22.58 10.01L24.29 13H23C22.45 13 22 13.45 22 14V17C22 17.55 22.45 18 23 18H26Z" fill="#FAFAFA"/>
<path opacity="0.4" d="M12 26C13.1046 26 14 25.1046 14 24C14 22.8954 13.1046 22 12 22C10.8954 22 10 22.8954 10 24C10 25.1046 10.8954 26 12 26Z" fill="#FAFAFA"/>
<path opacity="0.4" d="M20 26C21.1046 26 22 25.1046 22 24C22 22.8954 21.1046 22 20 22C18.8954 22 18 22.8954 18 24C18 25.1046 18.8954 26 20 26Z" fill="#FAFAFA"/>
<path opacity="0.4" d="M26 16.53V18H23C22.45 18 22 17.55 22 17V14C22 13.45 22.45 13 23 13H24.29L25.74 15.54C25.91 15.84 26 16.18 26 16.53Z" fill="#FAFAFA"/>
<path d="M11.6402 6.00002C10.9202 5.36002 9.96014 4.98002 8.91014 5.00002C7.97014 5.02002 7.11016 5.37001 6.43016 5.93001C5.53016 6.68001 4.97017 7.83005 5.00017 9.09005C5.02017 9.84005 5.24018 10.54 5.63018 11.13C5.74018 11.3 5.86017 11.47 6.00017 11.62C6.73017 12.49 7.8502 13.03 9.0902 13C10.1002 12.98 11.0102 12.59 11.6902 11.94C12.0002 11.68 12.2602 11.35 12.4602 10.99C12.8202 10.38 13.0202 9.65999 13.0002 8.90999C12.9702 7.73999 12.4502 6.71002 11.6402 6.00002ZM11.0602 8.52004L8.97014 10.54C8.82014 10.68 8.64018 10.75 8.45018 10.75C8.26018 10.75 8.08016 10.68 7.93016 10.54L6.92015 9.58004C6.62015 9.29004 6.6102 8.82004 6.9002 8.52004C7.1902 8.22004 7.66019 8.21002 7.96019 8.50002L8.45018 8.96999L10.0202 7.45003C10.3202 7.16003 10.7902 7.16999 11.0802 7.46999C11.3702 7.75999 11.3602 8.23004 11.0602 8.52004Z" fill="#FAFAFA"/>
</svg>
