<svg width="16" height="16" viewBox="0 0 16 16" fill="none" xmlns="http://www.w3.org/2000/svg">
<path d="M13.5654 5.04256L6.49876 12.1092C6.43618 12.1723 6.35098 12.2078 6.2621 12.2078C6.17322 12.2078 6.08802 12.1723 6.02543 12.1092L2.4321 8.51587C2.36899 8.45334 2.3335 8.36814 2.3335 8.2792C2.3335 8.19034 2.36899 8.10514 2.4321 8.04254L2.89876 7.57587C2.96135 7.5128 3.04655 7.47727 3.13543 7.47727C3.22431 7.47727 3.30951 7.5128 3.3721 7.57587L6.25876 10.4625L12.6254 4.0959C12.7573 3.96804 12.9669 3.96804 13.0988 4.0959L13.5654 4.56923C13.6286 4.63182 13.664 4.71702 13.664 4.8059C13.664 4.89478 13.6286 4.97997 13.5654 5.04256Z" fill="black"/>
</svg>
