<svg width="16" height="16" viewBox="0 0 16 16" fill="none" xmlns="http://www.w3.org/2000/svg">
<path d="M8.17654 9.13183L11.8335 5.47483C11.9001 5.40174 11.9806 5.34275 12.0704 5.30134C12.1602 5.25994 12.2573 5.23697 12.3561 5.23378C12.4549 5.2306 12.5534 5.24727 12.6456 5.2828C12.7378 5.31834 12.822 5.37202 12.8931 5.44067C12.9643 5.50932 13.0209 5.59155 13.0597 5.68247C13.0985 5.7734 13.1186 5.87118 13.1189 5.97003C13.1192 6.06888 13.0997 6.16679 13.0615 6.25797C13.0233 6.34914 12.9672 6.43172 12.8965 6.50083L12.8785 6.51883L8.69954 10.6988C8.56095 10.8374 8.37301 10.9152 8.17704 10.9152C7.98107 10.9152 7.79312 10.8374 7.65454 10.6988L3.47554 6.51983C3.40574 6.45239 3.34991 6.37187 3.31123 6.28286C3.27255 6.19385 3.25178 6.09809 3.25011 6.00105C3.24844 5.90402 3.2659 5.8076 3.30149 5.71731C3.33708 5.62702 3.3901 5.54462 3.45754 5.47483C3.52497 5.40503 3.60549 5.3492 3.6945 5.31052C3.78351 5.27184 3.87927 5.25107 3.97631 5.2494C4.07335 5.24773 4.16976 5.26519 4.26005 5.30078C4.35034 5.33637 4.43274 5.38939 4.50254 5.45683L4.52054 5.47483L8.17654 9.13183Z" fill="#6F1DF4" stroke="#6F1DF4" stroke-width="0.5"/>
</svg>
