<svg width="25" height="24" viewBox="0 0 25 24" fill="none" xmlns="http://www.w3.org/2000/svg">
<path fill-rule="evenodd" clip-rule="evenodd" d="M21.4999 7.66008V8.00008C21.5007 9.06616 21.076 10.0885 20.3199 10.84L17.4999 13.67C16.9738 14.1911 16.1261 14.1911 15.6 13.67L15.5 13.56C15.3094 13.3656 15.3094 13.0544 15.5 12.86L18.9399 9.42006C19.307 9.03938 19.5083 8.52883 19.4999 8.00008V7.66008C19.5003 7.12705 19.288 6.61589 18.9099 6.2401L18.2599 5.59011C17.8841 5.21207 17.373 4.99969 16.8399 5.00011H16.4999C15.9669 4.99969 15.4558 5.21207 15.08 5.59011L11.64 9.00007C11.4456 9.19064 11.1344 9.19064 10.94 9.00007L10.83 8.89007C10.3089 8.36394 10.3089 7.51623 10.83 6.99009L13.66 4.15012C14.4165 3.40505 15.4382 2.99133 16.4999 3.00014H16.8399C17.9011 2.9993 18.9191 3.42018 19.6699 4.17012L20.3299 4.83012C21.0798 5.5809 21.5007 6.59891 21.4999 7.66008ZM9.14993 13.94L14.4399 8.65008C14.5338 8.55543 14.6616 8.50218 14.7949 8.50218C14.9282 8.50218 15.056 8.55543 15.1499 8.65008L15.8499 9.35007C15.9445 9.44395 15.9978 9.57175 15.9978 9.70507C15.9978 9.83839 15.9445 9.96618 15.8499 10.0601L10.5599 15.35C10.466 15.4447 10.3382 15.4979 10.2049 15.4979C10.0716 15.4979 9.94381 15.4447 9.84993 15.35L9.14993 14.65C9.05528 14.5561 9.00204 14.4283 9.00204 14.295C9.00204 14.1617 9.05528 14.0339 9.14993 13.94ZM14.0599 15C13.8655 14.8094 13.5543 14.8094 13.3599 15L9.92993 18.41C9.5517 18.7905 9.03645 19.003 8.49995 18.9999H8.15995C7.62691 19.0004 7.11576 18.788 6.73997 18.41L6.08997 17.76C5.71194 17.3842 5.49956 16.873 5.49998 16.34V16C5.49956 15.4669 5.71194 14.9558 6.08997 14.58L9.50993 11.14C9.7005 10.9456 9.7005 10.6345 9.50993 10.44L9.39993 10.33C8.8738 9.80894 8.02609 9.80894 7.49996 10.33L4.67999 13.16C3.92392 13.9116 3.49916 14.9339 3.5 16V16.35C3.50182 17.4077 3.92249 18.4216 4.66999 19.1699L5.32998 19.8299C6.08076 20.5799 7.09878 21.0008 8.15995 20.9999H8.49995C9.55338 21.0061 10.5667 20.5964 11.3199 19.8599L14.1699 17.01C14.691 16.4838 14.691 15.6361 14.1699 15.11L14.0599 15Z" fill="black"/>
</svg>
