<svg width="25" height="24" viewBox="0 0 25 24" fill="none" xmlns="http://www.w3.org/2000/svg">
<path d="M17.25 6H14.25C13.6977 6 13.25 6.44772 13.25 7V10H17.25C17.3637 9.99748 17.4716 10.0504 17.5392 10.1419C17.6068 10.2334 17.6258 10.352 17.59 10.46L16.85 12.66C16.7818 12.8619 16.5931 12.9984 16.38 13H13.25V20.5C13.25 20.7761 13.0261 21 12.75 21H10.25C9.97386 21 9.75 20.7761 9.75 20.5V13H8.25C7.97386 13 7.75 12.7761 7.75 12.5V10.5C7.75 10.2239 7.97386 10 8.25 10H9.75V7C9.75 4.79086 11.5409 3 13.75 3H17.25C17.5261 3 17.75 3.22386 17.75 3.5V5.5C17.75 5.77614 17.5261 6 17.25 6Z" fill="white"/>
</svg>
