<svg width="122" height="36" viewBox="0 0 122 36" fill="none" xmlns="http://www.w3.org/2000/svg">
<rect x="0.45" y="0.45" width="120.6" height="35.1" rx="4.05" stroke="#012811" stroke-width="0.9"/>
<path fill-rule="evenodd" clip-rule="evenodd" d="M9.14159 7.16976C9.03529 7.4105 8.97656 7.70549 8.97656 8.04862V27.953C8.97656 28.2969 9.03536 28.5919 9.14179 28.8326L19.9723 18.0005L9.14159 7.16976ZM9.76729 29.4799C10.1687 29.6516 10.6924 29.5972 11.2635 29.2733L24.0049 22.033L20.6087 18.6369L9.76729 29.4799ZM24.817 21.5724L28.8144 19.3013C30.0717 18.5858 30.0717 17.4167 28.8144 16.7021L24.8153 14.4297L21.2451 18.0004L24.817 21.5724ZM24.0037 13.9686L11.2635 6.72923C10.6924 6.4047 10.1687 6.35056 9.76721 6.52259L20.6087 17.364L24.0037 13.9686Z" fill="#012811"/>
<path d="M61.3221 19.5759C59.2053 19.5759 57.48 21.186 57.48 23.4036C57.48 25.6077 59.2053 27.2313 61.3221 27.2313C63.4398 27.2313 65.1651 25.6077 65.1651 23.4036C65.1642 21.186 63.4389 19.5759 61.3221 19.5759ZM61.3221 25.7247C60.162 25.7247 59.1621 24.768 59.1621 23.4045C59.1621 22.0266 60.1629 21.0843 61.3221 21.0843C62.4822 21.0843 63.4821 22.0266 63.4821 23.4045C63.4821 24.7671 62.4822 25.7247 61.3221 25.7247ZM52.9395 19.5759C50.8227 19.5759 49.0974 21.186 49.0974 23.4036C49.0974 25.6077 50.8227 27.2313 52.9395 27.2313C55.0572 27.2313 56.7825 25.6077 56.7825 23.4036C56.7825 21.186 55.0572 19.5759 52.9395 19.5759ZM52.9395 25.7247C51.7794 25.7247 50.7795 24.768 50.7795 23.4045C50.7795 22.0266 51.7803 21.0843 52.9395 21.0843C54.0996 21.0843 55.0995 22.0266 55.0995 23.4045C55.1004 24.7671 54.0996 25.7247 52.9395 25.7247ZM42.9693 20.7513V22.3749H46.8555C46.7394 23.2884 46.4352 23.9553 45.9708 24.4188C45.4056 24.984 44.5209 25.6077 42.9693 25.6077C40.5771 25.6077 38.7069 23.679 38.7069 21.2868C38.7069 18.8946 40.5771 16.9659 42.9693 16.9659C44.2599 16.9659 45.2022 17.4735 45.8979 18.126L47.0436 16.9803C46.0716 16.0524 44.7819 15.3423 42.9693 15.3423C39.6924 15.3423 36.9375 18.0099 36.9375 21.2868C36.9375 24.5637 39.6924 27.2313 42.9693 27.2313C44.7378 27.2313 46.0725 26.6508 47.1156 25.5636C48.1884 24.4908 48.5223 22.9824 48.5223 21.7647C48.5223 21.3885 48.4935 21.0402 48.435 20.7504H42.9693V20.7513ZM83.7465 22.0122C83.4279 21.1572 82.4559 19.5759 80.4696 19.5759C78.4977 19.5759 76.8588 21.1275 76.8588 23.4036C76.8588 25.5492 78.4833 27.2313 80.6577 27.2313C82.4118 27.2313 83.427 26.1585 83.8482 25.5348L82.5432 24.6645C82.1085 25.3026 81.5136 25.7229 80.6577 25.7229C79.8027 25.7229 79.1934 25.3314 78.8019 24.5628L83.9202 22.446L83.7465 22.0122ZM78.5265 23.2884C78.4833 21.8088 79.6722 21.0555 80.5281 21.0555C81.195 21.0555 81.7602 21.3894 81.9492 21.8673L78.5265 23.2884ZM74.3658 27H76.047V15.7491H74.3658V27ZM71.61 20.4318H71.5524C71.1753 19.9818 70.4499 19.5759 69.5373 19.5759C67.623 19.5759 65.8689 21.258 65.8689 23.4189C65.8689 25.5645 67.623 27.2322 69.5373 27.2322C70.4508 27.2322 71.1753 26.8263 71.5524 26.3628H71.61V26.9136C71.61 28.3779 70.827 29.1609 69.5661 29.1609C68.5365 29.1609 67.8984 28.422 67.6374 27.7983L66.1731 28.4076C66.5934 29.4219 67.7094 30.6693 69.5661 30.6693C71.538 30.6693 73.2057 29.5092 73.2057 26.6814V19.809H71.6109V20.4318H71.61ZM69.6822 25.7247C68.5221 25.7247 67.551 24.7527 67.551 23.4189C67.551 22.0698 68.5221 21.0843 69.6822 21.0843C70.827 21.0843 71.7261 22.0698 71.7261 23.4189C71.7261 24.7527 70.827 25.7247 69.6822 25.7247ZM91.6251 15.7491H87.6012V27H89.2797V22.7376H91.6242C93.4854 22.7376 95.316 21.3903 95.316 19.2438C95.316 17.0973 93.4863 15.7491 91.6251 15.7491ZM91.6683 21.1716H89.2797V17.3151H91.6683C92.9238 17.3151 93.6366 18.3546 93.6366 19.2438C93.6366 20.115 92.9238 21.1716 91.6683 21.1716ZM102.047 19.5561C100.831 19.5561 99.5721 20.0916 99.051 21.2787L100.541 21.9006C100.86 21.2787 101.454 21.0753 102.076 21.0753C102.944 21.0753 103.827 21.5964 103.842 22.5225V22.6386C103.537 22.4649 102.886 22.2048 102.09 22.2048C100.484 22.2048 98.8476 23.0877 98.8476 24.7374C98.8476 26.2431 100.165 27.2124 101.641 27.2124C102.77 27.2124 103.393 26.7057 103.783 26.1117H103.841V26.9802H105.463V22.6665C105.464 20.6703 103.971 19.5561 102.047 19.5561ZM101.844 25.722C101.295 25.722 100.527 25.4466 100.527 24.7662C100.527 23.8977 101.483 23.5647 102.308 23.5647C103.045 23.5647 103.393 23.724 103.842 23.9409C103.711 24.984 102.814 25.722 101.844 25.722ZM111.368 19.8018L109.443 24.6798H109.386L107.388 19.8018H105.579L108.575 26.6193L106.867 30.4119H108.618L113.236 19.8018H111.368ZM96.243 27H97.9215V15.7491H96.243V27Z" fill="#012811"/>
<path d="M42.6781 9.21887C42.6781 9.97307 42.4549 10.5734 42.0076 11.0216C41.5 11.5544 40.8377 11.8208 40.0241 11.8208C39.2447 11.8208 38.5814 11.5508 38.0369 11.0108C37.4915 10.4699 37.2188 9.80027 37.2188 9.00107C37.2188 8.20097 37.4915 7.53137 38.0369 6.99137C38.5814 6.45047 39.2447 6.18047 40.0241 6.18047C40.4111 6.18047 40.7809 6.25607 41.1319 6.40637C41.4839 6.55757 41.7655 6.75827 41.9761 7.00937L41.5018 7.48457C41.1445 7.05707 40.6522 6.84377 40.0231 6.84377C39.4543 6.84377 38.9629 7.04357 38.548 7.44317C38.1331 7.84277 37.9261 8.36207 37.9261 9.00017C37.9261 9.63827 38.1331 10.1576 38.548 10.5572C38.9629 10.9568 39.4543 11.1566 40.0231 11.1566C40.6261 11.1566 41.1293 10.9559 41.5315 10.5536C41.7926 10.2917 41.9437 9.92717 41.9842 9.46007H40.0231V8.81117H42.6394C42.6664 8.95247 42.6781 9.08837 42.6781 9.21887Z" fill="#012811"/>
<path d="M46.8272 6.96352H44.3684V8.67532H46.586V9.32422H44.3684V11.036H46.8272V11.7002H43.6745V6.30022H46.8272V6.96352Z" fill="#012811"/>
<path d="M49.753 11.7002H49.0591V6.96352H47.5507V6.30022H51.2614V6.96352H49.753V11.7002Z" fill="#012811"/>
<path d="M53.9461 11.7002V6.30022H54.64V11.7002H53.9461Z" fill="#012811"/>
<path d="M57.7172 11.7002H57.0233V6.96352H55.5149V6.30022H59.2256V6.96352H57.7172V11.7002Z" fill="#012811"/>
<path d="M66.2499 11.0027C65.7189 11.5481 65.0592 11.8208 64.2699 11.8208C63.4806 11.8208 62.8209 11.5481 62.2908 11.0027C61.7598 10.4573 61.4952 9.78951 61.4952 9.00021C61.4952 8.21091 61.7598 7.54311 62.2908 6.99771C62.8209 6.45231 63.4806 6.17871 64.2699 6.17871C65.0547 6.17871 65.7135 6.45321 66.2463 7.00131C66.7791 7.54941 67.0455 8.21541 67.0455 9.00021C67.0455 9.78951 66.78 10.4573 66.2499 11.0027ZM62.8029 10.55C63.2025 10.955 63.6912 11.1566 64.2699 11.1566C64.8486 11.1566 65.3382 10.9541 65.7369 10.55C66.1365 10.145 66.3372 9.62841 66.3372 9.00021C66.3372 8.37201 66.1365 7.85541 65.7369 7.45041C65.3382 7.04541 64.8486 6.84381 64.2699 6.84381C63.6912 6.84381 63.2025 7.04631 62.8029 7.45041C62.4042 7.85541 62.2035 8.37201 62.2035 9.00021C62.2035 9.62841 62.4042 10.145 62.8029 10.55Z" fill="#012811"/>
<path d="M68.0194 11.7002V6.30022H68.8636L71.488 10.5005H71.5177L71.488 9.46012V6.30022H72.1819V11.7002H71.4574L68.7115 7.29562H68.6818L68.7115 8.33602V11.7002H68.0194Z" fill="#012811"/>
<path d="M42.6781 9.21887C42.6781 9.97307 42.4549 10.5734 42.0076 11.0216C41.5 11.5544 40.8377 11.8208 40.0241 11.8208C39.2447 11.8208 38.5814 11.5508 38.0369 11.0108C37.4915 10.4699 37.2188 9.80027 37.2188 9.00107C37.2188 8.20097 37.4915 7.53137 38.0369 6.99137C38.5814 6.45047 39.2447 6.18047 40.0241 6.18047C40.4111 6.18047 40.7809 6.25607 41.1319 6.40637C41.4839 6.55757 41.7655 6.75827 41.9761 7.00937L41.5018 7.48457C41.1445 7.05707 40.6522 6.84377 40.0231 6.84377C39.4543 6.84377 38.9629 7.04357 38.548 7.44317C38.1331 7.84277 37.9261 8.36207 37.9261 9.00017C37.9261 9.63827 38.1331 10.1576 38.548 10.5572C38.9629 10.9568 39.4543 11.1566 40.0231 11.1566C40.6261 11.1566 41.1293 10.9559 41.5315 10.5536C41.7926 10.2917 41.9437 9.92717 41.9842 9.46007H40.0231V8.81117H42.6394C42.6664 8.95247 42.6781 9.08837 42.6781 9.21887Z" stroke="#012811" stroke-width="0.18" stroke-miterlimit="10"/>
<path d="M46.8272 6.96352H44.3684V8.67532H46.586V9.32422H44.3684V11.036H46.8272V11.7002H43.6745V6.30022H46.8272V6.96352Z" stroke="#012811" stroke-width="0.18" stroke-miterlimit="10"/>
<path d="M49.753 11.7002H49.0591V6.96352H47.5507V6.30022H51.2614V6.96352H49.753V11.7002Z" stroke="#012811" stroke-width="0.18" stroke-miterlimit="10"/>
<path d="M53.9461 11.7002V6.30022H54.64V11.7002H53.9461Z" stroke="#012811" stroke-width="0.18" stroke-miterlimit="10"/>
<path d="M57.7172 11.7002H57.0233V6.96352H55.5149V6.30022H59.2256V6.96352H57.7172V11.7002Z" stroke="#012811" stroke-width="0.18" stroke-miterlimit="10"/>
<path d="M66.2499 11.0027C65.7189 11.5481 65.0592 11.8208 64.2699 11.8208C63.4806 11.8208 62.8209 11.5481 62.2908 11.0027C61.7598 10.4573 61.4952 9.78951 61.4952 9.00021C61.4952 8.21091 61.7598 7.54311 62.2908 6.99771C62.8209 6.45231 63.4806 6.17871 64.2699 6.17871C65.0547 6.17871 65.7135 6.45321 66.2463 7.00131C66.7791 7.54941 67.0455 8.21541 67.0455 9.00021C67.0455 9.78951 66.78 10.4573 66.2499 11.0027ZM62.8029 10.55C63.2025 10.955 63.6912 11.1566 64.2699 11.1566C64.8486 11.1566 65.3382 10.9541 65.7369 10.55C66.1365 10.145 66.3372 9.62841 66.3372 9.00021C66.3372 8.37201 66.1365 7.85541 65.7369 7.45041C65.3382 7.04541 64.8486 6.84381 64.2699 6.84381C63.6912 6.84381 63.2025 7.04631 62.8029 7.45041C62.4042 7.85541 62.2035 8.37201 62.2035 9.00021C62.2035 9.62841 62.4042 10.145 62.8029 10.55Z" stroke="#012811" stroke-width="0.18" stroke-miterlimit="10"/>
<path d="M68.0194 11.7002V6.30022H68.8636L71.488 10.5005H71.5177L71.488 9.46012V6.30022H72.1819V11.7002H71.4574L68.7115 7.29562H68.6818L68.7115 8.33602V11.7002H68.0194Z" stroke="#012811" stroke-width="0.18" stroke-miterlimit="10"/>
</svg>
