<svg width="53" height="52" viewBox="0 0 53 52" fill="none" xmlns="http://www.w3.org/2000/svg">
<rect x="0.416504" width="52" height="52" rx="26" fill="#EEF4F0"/>
<path d="M17.4739 29.9462C16.9532 30.4669 16.9532 31.3111 17.4739 31.8318C17.9946 32.3525 18.8388 32.3525 19.3595 31.8318L23.8404 27.3509L25.5733 28.7662C26.1178 29.2109 26.9141 29.1564 27.3929 28.6416L31.7538 23.9537L33.4439 25.7565C33.9476 26.2937 34.7914 26.3209 35.3286 25.8173C35.8658 25.3136 35.893 24.4699 35.3894 23.9326L32.7227 21.0882C32.47 20.8187 32.1169 20.6661 31.7474 20.6668C31.378 20.6675 31.0254 20.8215 30.7737 21.092L26.2918 25.91L24.5934 24.523C24.0632 24.09 23.2912 24.1288 22.8072 24.6129L17.4739 29.9462Z" fill="#64AB80"/>
<path fill-rule="evenodd" clip-rule="evenodd" d="M17.0833 14C14.1378 14 11.75 16.3878 11.75 19.3333V32.6667C11.75 35.6122 14.1378 38 17.0833 38H35.75C38.6955 38 41.0833 35.6122 41.0833 32.6667V19.3333C41.0833 16.3878 38.6955 14 35.75 14H17.0833ZM14.4167 19.3333C14.4167 17.8606 15.6106 16.6667 17.0833 16.6667H35.75C37.2228 16.6667 38.4167 17.8606 38.4167 19.3333V32.6667C38.4167 34.1394 37.2228 35.3333 35.75 35.3333H17.0833C15.6106 35.3333 14.4167 34.1394 14.4167 32.6667V19.3333Z" fill="#64AB80"/>
</svg>
