<svg width="95" height="38" viewBox="0 0 95 38" fill="none" xmlns="http://www.w3.org/2000/svg">
<g clip-path="url(#clip0_587_370)">
<path d="M0 0H6.18445V10.5823H18.1966V0H24.381V28.3798H18.1966V16.1139H6.18445V28.3798H0V0Z" fill="white"/>
<path d="M41.4197 25.9346H41.3405C40.6798 26.9768 39.7944 27.725 38.6844 28.1793C37.6007 28.6336 36.451 28.8608 35.2353 28.8608C34.3367 28.8608 33.4646 28.7272 32.6188 28.4599C31.7995 28.2194 31.0727 27.8452 30.4383 27.3375C29.804 26.8298 29.3019 26.2019 28.9319 25.4536C28.5619 24.7054 28.377 23.8369 28.377 22.8481C28.377 21.7258 28.5751 20.777 28.9716 20.0022C29.3944 19.2272 29.9495 18.5858 30.6366 18.0781C31.3502 17.5704 32.1563 17.1829 33.0549 16.9156C33.9535 16.6216 34.8785 16.4079 35.83 16.2742C36.8078 16.1406 37.7726 16.0605 38.724 16.0338C39.7019 16.0071 40.6004 15.9937 41.4197 15.9937C41.4197 14.9247 41.0365 14.083 40.2701 13.4684C39.5301 12.827 38.6447 12.5063 37.614 12.5063C36.6361 12.5063 35.7375 12.7201 34.9182 13.1477C34.1253 13.5485 33.4116 14.1097 32.7773 14.8312L29.6059 11.5443C30.7159 10.5021 32.011 9.72715 33.491 9.21942C34.971 8.68496 36.5039 8.41772 38.0897 8.41772C39.834 8.41772 41.2611 8.64487 42.3712 9.09916C43.5076 9.52673 44.4063 10.1681 45.067 11.0232C45.7541 11.8784 46.2299 12.9339 46.4942 14.1898C46.7585 15.4191 46.8906 16.8488 46.8906 18.4789V28.3798H41.4197V25.9346ZM39.953 19.8418C39.5036 19.8418 38.9354 19.8685 38.2483 19.9219C37.5875 19.9486 36.94 20.0556 36.3057 20.2426C35.6978 20.4297 35.1692 20.7103 34.7199 21.0844C34.297 21.4585 34.0856 21.9796 34.0856 22.6477C34.0856 23.3692 34.3896 23.9037 34.9974 24.2511C35.6053 24.5985 36.2396 24.7722 36.9003 24.7722C37.4818 24.7722 38.0368 24.692 38.5654 24.5316C39.1204 24.3713 39.6094 24.1442 40.0322 23.8502C40.4551 23.5563 40.7854 23.1821 41.0233 22.7278C41.2876 22.2736 41.4197 21.7391 41.4197 21.1245V19.8418H39.953Z" fill="white"/>
<path d="M70.8397 26.7363C70.8397 30.4241 69.9146 33.2167 68.0646 35.1139C66.2409 37.038 63.4526 38 59.6997 38C57.9818 38 56.2904 37.7996 54.6252 37.3988C52.9602 37.0247 51.4274 36.2764 50.0266 35.154L53.3171 30.1835C54.2421 30.9585 55.2067 31.5732 56.211 32.0275C57.2418 32.4818 58.365 32.7088 59.5808 32.7088C61.4044 32.7088 62.7391 32.2546 63.5848 31.346C64.457 30.4642 64.8931 29.3284 64.8931 27.9389V26.0548H64.8137C64.1266 26.9901 63.2676 27.6582 62.2369 28.0591C61.2327 28.4332 60.2812 28.6202 59.3826 28.6202C57.9554 28.6202 56.6603 28.3798 55.4975 27.8988C54.3346 27.391 53.3302 26.6962 52.4845 25.8144C51.6652 24.9057 51.0309 23.8369 50.5816 22.6076C50.1324 21.3784 49.9077 20.0289 49.9077 18.5591C49.9077 17.2764 50.1059 16.0204 50.5024 14.7912C50.9252 13.5619 51.5066 12.4796 52.2467 11.5443C53.0131 10.609 53.9381 9.86076 55.0217 9.29959C56.1054 8.71168 57.3343 8.41772 58.7086 8.41772C59.5544 8.41772 60.3208 8.51126 61.008 8.69832C61.7215 8.88538 62.3558 9.12589 62.9109 9.41984C63.4659 9.71379 63.9416 10.0478 64.338 10.422C64.7345 10.7693 65.0517 11.1167 65.2895 11.4642H65.3688V8.89874H70.8397V26.7363ZM55.8543 18.519C55.8543 19.1603 55.9732 19.775 56.211 20.3628C56.4489 20.9241 56.7792 21.4318 57.2021 21.8861C57.6515 22.3136 58.1536 22.6611 58.7086 22.9283C59.2901 23.1955 59.9244 23.3292 60.6115 23.3292C61.2722 23.3292 61.8934 23.1955 62.4748 22.9283C63.0562 22.6611 63.5584 22.3136 63.9813 21.8861C64.4306 21.4318 64.7742 20.9241 65.012 20.3628C65.2499 19.775 65.3688 19.1603 65.3688 18.519C65.3688 17.8776 65.2499 17.2764 65.012 16.7152C64.7742 16.1273 64.4306 15.6196 63.9813 15.192C63.5584 14.7377 63.0562 14.377 62.4748 14.1097C61.8934 13.8425 61.2722 13.7088 60.6115 13.7088C59.9244 13.7088 59.2901 13.8425 58.7086 14.1097C58.1536 14.377 57.6515 14.7377 57.2021 15.192C56.7792 15.6196 56.4489 16.1273 56.211 16.7152C55.9732 17.2764 55.8543 17.8776 55.8543 18.519Z" fill="white"/>
<path d="M93.8284 25.0127C92.877 26.242 91.6744 27.1906 90.2208 27.8587C88.7671 28.5267 87.2607 28.8608 85.7014 28.8608C84.2213 28.8608 82.8207 28.6202 81.4991 28.1392C80.2041 27.6582 79.0676 26.9768 78.0898 26.0949C77.1383 25.1864 76.3851 24.104 75.8301 22.8481C75.275 21.5921 74.9976 20.1892 74.9976 18.6392C74.9976 17.0893 75.275 15.6864 75.8301 14.4304C76.3851 13.1744 77.1383 12.1055 78.0898 11.2236C79.0676 10.3151 80.2041 9.62026 81.4991 9.13925C82.8207 8.65823 84.2213 8.41772 85.7014 8.41772C87.0757 8.41772 88.3179 8.65823 89.428 9.13925C90.5644 9.62026 91.5159 10.3151 92.2822 11.2236C93.0751 12.1055 93.683 13.1744 94.1059 14.4304C94.5287 15.6864 94.7402 17.0893 94.7402 18.6392V20.5232H80.9441C81.182 21.6723 81.6974 22.5943 82.4902 23.289C83.2831 23.9571 84.261 24.2912 85.4239 24.2912C86.4017 24.2912 87.221 24.0773 87.8818 23.6498C88.569 23.1955 89.1636 22.621 89.6658 21.9262L93.8284 25.0127ZM88.7937 16.4346C88.8201 15.4191 88.4896 14.5506 87.8025 13.8292C87.1154 13.1076 86.23 12.7468 85.1464 12.7468C84.4857 12.7468 83.9042 12.8537 83.402 13.0675C82.8999 13.2813 82.4638 13.5619 82.0939 13.9093C81.7502 14.23 81.4727 14.6174 81.2613 15.0718C81.0763 15.4993 80.9706 15.9536 80.9441 16.4346H88.7937Z" fill="#06A956"/>
</g>
<defs>
<clipPath id="clip0_587_370">
<rect width="95" height="38" fill="white"/>
</clipPath>
</defs>
</svg>
