<svg width="32" height="32" viewBox="0 0 32 32" fill="none" xmlns="http://www.w3.org/2000/svg">
<path opacity="0.4" d="M25.3699 15.3901V21.3801C25.3699 24.1401 23.1299 26.3801 20.3699 26.3801H11.6299C8.86988 26.3801 6.62988 24.1401 6.62988 21.3801V15.4601C7.38988 16.2801 8.46988 16.7501 9.63988 16.7501C10.8999 16.7501 12.1099 16.1201 12.8699 15.1101C13.5499 16.1201 14.7099 16.7501 15.9999 16.7501C17.2799 16.7501 18.4199 16.1501 19.1099 15.1501C19.8799 16.1401 21.0699 16.7501 22.3099 16.7501C23.5199 16.7501 24.6199 16.2601 25.3699 15.3901Z" fill="#F8FCF9"/>
<path d="M18.9899 5.25H12.9899L12.2499 12.61C12.1899 13.29 12.2899 13.93 12.5399 14.51C13.1199 15.87 14.4799 16.75 15.9999 16.75C17.5399 16.75 18.8699 15.89 19.4699 14.52C19.6499 14.09 19.7599 13.59 19.7699 13.08V12.89L18.9899 5.25Z" fill="#F8FCF9"/>
<path opacity="0.6" d="M26.3598 12.27L26.0698 9.5C25.6498 6.48 24.2798 5.25 21.3498 5.25H17.5098L18.2498 12.75C18.2598 12.85 18.2698 12.96 18.2698 13.15C18.3298 13.67 18.4898 14.15 18.7298 14.58C19.4498 15.9 20.8498 16.75 22.3098 16.75C23.6398 16.75 24.8398 16.16 25.5898 15.12C26.1898 14.32 26.4598 13.31 26.3598 12.27Z" fill="#F8FCF9"/>
<path opacity="0.6" d="M10.5901 5.25C7.65014 5.25 6.29014 6.48 5.86014 9.53L5.59014 12.28C5.49014 13.35 5.78014 14.39 6.41014 15.2C7.17014 16.19 8.34014 16.75 9.64014 16.75C11.1001 16.75 12.5001 15.9 13.2101 14.6C13.4701 14.15 13.6401 13.63 13.6901 13.09L14.4701 5.26H10.5901V5.25Z" fill="#F8FCF9"/>
<path d="M15.3501 20.66C14.0801 20.79 13.1201 21.87 13.1201 23.15V26.38H18.8701V23.5C18.8801 21.41 17.6501 20.42 15.3501 20.66Z" fill="#F8FCF9"/>
</svg>
