<svg width="25" height="24" viewBox="0 0 25 24" fill="none" xmlns="http://www.w3.org/2000/svg">
<path fill-rule="evenodd" clip-rule="evenodd" d="M16.8125 3H8.8125C6.05108 3 3.8125 5.23858 3.8125 8V16C3.8125 18.7614 6.05108 21 8.8125 21H16.8125C19.5739 21 21.8125 18.7614 21.8125 16V8C21.8125 5.23858 19.5739 3 16.8125 3ZM20.0625 16C20.057 17.7926 18.6051 19.2445 16.8125 19.25H8.8125C7.01985 19.2445 5.56799 17.7926 5.5625 16V8C5.56799 6.20735 7.01985 4.75549 8.8125 4.75H16.8125C18.6051 4.75549 20.057 6.20735 20.0625 8V16ZM17.5625 8.25C18.1148 8.25 18.5625 7.80228 18.5625 7.25C18.5625 6.69772 18.1148 6.25 17.5625 6.25C17.0102 6.25 16.5625 6.69772 16.5625 7.25C16.5625 7.80228 17.0102 8.25 17.5625 8.25ZM12.8125 7.5C10.3272 7.5 8.3125 9.51472 8.3125 12C8.3125 14.4853 10.3272 16.5 12.8125 16.5C15.2978 16.5 17.3125 14.4853 17.3125 12C17.3152 10.8057 16.8419 9.65957 15.9974 8.81508C15.1529 7.97059 14.0068 7.49734 12.8125 7.5ZM10.0625 12C10.0625 13.5188 11.2937 14.75 12.8125 14.75C14.3313 14.75 15.5625 13.5188 15.5625 12C15.5625 10.4812 14.3313 9.25 12.8125 9.25C11.2937 9.25 10.0625 10.4812 10.0625 12Z" fill="white"/>
</svg>
