<svg width="25" height="24" viewBox="0 0 25 24" fill="none" xmlns="http://www.w3.org/2000/svg">
<path fill-rule="evenodd" clip-rule="evenodd" d="M5.9375 3H19.9375C21.0421 3 21.9375 3.89543 21.9375 5V19C21.9375 20.1046 21.0421 21 19.9375 21H5.9375C4.83293 21 3.9375 20.1046 3.9375 19V5C3.9375 3.89543 4.83293 3 5.9375 3ZM8.9375 18C9.21364 18 9.4375 17.7761 9.4375 17.5V10.5C9.4375 10.2239 9.21364 10 8.9375 10H7.4375C7.16136 10 6.9375 10.2239 6.9375 10.5V17.5C6.9375 17.7761 7.16136 18 7.4375 18H8.9375ZM8.1875 9C7.35907 9 6.6875 8.32843 6.6875 7.5C6.6875 6.67157 7.35907 6 8.1875 6C9.01593 6 9.6875 6.67157 9.6875 7.5C9.6875 8.32843 9.01593 9 8.1875 9ZM18.4375 18C18.7136 18 18.9375 17.7761 18.9375 17.5V12.9C18.97 11.3108 17.7951 9.95452 16.2175 9.76C15.1145 9.65925 14.0458 10.1744 13.4375 11.1V10.5C13.4375 10.2239 13.2136 10 12.9375 10H11.4375C11.1614 10 10.9375 10.2239 10.9375 10.5V17.5C10.9375 17.7761 11.1614 18 11.4375 18H12.9375C13.2136 18 13.4375 17.7761 13.4375 17.5V13.75C13.4375 12.9216 14.1091 12.25 14.9375 12.25C15.7659 12.25 16.4375 12.9216 16.4375 13.75V17.5C16.4375 17.7761 16.6614 18 16.9375 18H18.4375Z" fill="white"/>
</svg>
