<svg width="25" height="24" viewBox="0 0 25 24" fill="none" xmlns="http://www.w3.org/2000/svg">
<path d="M5.5 4H19.5C21.1568 4 22.4999 5.343 22.5 6.99974C22.3763 6.9997 22.2505 7.02277 22.1286 7.07152L13.2428 10.6259C12.766 10.8166 12.234 10.8166 11.7572 10.6259L2.87139 7.07152C2.74951 7.02277 2.62371 6.9997 2.5 6.99973C2.50014 5.343 3.84323 4 5.5 4Z" fill="#64AB80"/>
<path d="M2.5 9.07703V17C2.5 18.6569 3.84315 20 5.5 20H19.5C21.1569 20 22.5 18.6569 22.5 17V9.07703L13.9856 12.4828C13.0319 12.8643 11.9681 12.8643 11.0144 12.4828L2.5 9.07703Z" fill="#64AB80"/>
</svg>
