<svg width="52" height="52" viewBox="0 0 52 52" fill="none" xmlns="http://www.w3.org/2000/svg">
<rect width="52" height="52" rx="26" fill="#EEF4F0"/>
<path d="M16.7882 18.5555C16.0547 18.4913 15.408 19.034 15.3438 19.7676C15.2796 20.5012 15.8223 21.1479 16.5558 21.212L19.2123 21.4445C19.9459 21.5086 20.5926 20.966 20.6568 20.2324C20.721 19.4988 20.1783 18.8521 19.4448 18.7879L16.7882 18.5555Z" fill="#64AB80"/>
<path d="M31.3438 21.1009C31.408 20.3673 32.0547 19.8247 32.7882 19.8889L35.4448 20.1213C36.1783 20.1855 36.721 20.8322 36.6568 21.5657C36.5926 22.2993 35.9459 22.842 35.2123 22.7778L32.5558 22.5454C31.8223 22.4812 31.2796 21.8345 31.3438 21.1009Z" fill="#64AB80"/>
<path d="M16.7882 30.0051C16.0547 29.9409 15.408 30.4835 15.3438 31.2171C15.2796 31.9507 15.8223 32.5974 16.5558 32.6616L19.2123 32.894C19.9459 32.9582 20.5926 32.4155 20.6568 31.6819C20.721 30.9484 20.1783 30.3017 19.4448 30.2375L16.7882 30.0051Z" fill="#64AB80"/>
<path d="M31.3438 33.1009C31.408 32.3673 32.0547 31.8247 32.7882 31.8889L35.4448 32.1213C36.1783 32.1854 36.721 32.8322 36.6568 33.5657C36.5926 34.2993 35.9459 34.842 35.2123 34.7778L32.5558 34.5454C31.8223 34.4812 31.2796 33.8345 31.3438 33.1009Z" fill="#64AB80"/>
<path fill-rule="evenodd" clip-rule="evenodd" d="M26.0002 22C28.2093 22 30.0002 23.7909 30.0002 26C30.0002 28.2091 28.2093 30 26.0002 30C23.791 30 22.0002 28.2091 22.0002 26C22.0002 23.7909 23.791 22 26.0002 22ZM27.3335 26C27.3335 25.2636 26.7365 24.6667 26.0002 24.6667C25.2638 24.6667 24.6668 25.2636 24.6668 26C24.6668 26.7364 25.2638 27.3333 26.0002 27.3333C26.7365 27.3333 27.3335 26.7364 27.3335 26Z" fill="#64AB80"/>
<path fill-rule="evenodd" clip-rule="evenodd" d="M16.9926 14.3221C13.9083 14.0574 11.3335 16.5012 11.3335 19.5581V30.2129C11.3335 33.0464 13.5401 35.374 16.3312 35.6088C17.4752 35.7051 18.8786 35.8311 20.5367 35.9936C20.834 36.0228 21.4949 36.1576 22.4504 36.3786C23.0786 36.5239 23.7858 36.6946 24.5288 36.8739C24.879 36.9584 25.2383 37.0452 25.5999 37.1318C26.7189 37.3998 27.8631 37.6675 28.8477 37.869C29.7905 38.0619 30.7143 38.2223 31.3279 38.2249C32.8527 38.2313 34.3441 38.2025 35.6203 38.1636C38.4751 38.0765 40.6668 35.718 40.6668 32.9082V22.2571C40.6668 19.1738 38.0754 16.7638 35.045 16.8457C33.9081 16.8765 32.6337 16.8971 31.3391 16.8916C31.0314 16.8903 30.3617 16.7902 29.3823 16.5898C28.4448 16.398 27.338 16.1394 26.2211 15.8718C25.8712 15.788 25.5195 15.7031 25.1725 15.6193L25.1712 15.619C24.4208 15.4379 23.6921 15.262 23.0512 15.1138C22.1443 14.9041 21.3014 14.7225 20.7969 14.673C19.3317 14.5294 18.0626 14.414 16.9926 14.3221ZM14.0002 19.5581C14.0002 18.0251 15.2757 16.8512 16.7645 16.979C17.8239 17.0699 19.0823 17.1844 20.5367 17.327C20.834 17.3561 21.4949 17.4909 22.4504 17.7119C23.0787 17.8572 23.7861 18.0279 24.5291 18.2073C24.8796 18.2919 25.238 18.3784 25.5999 18.4651C26.7189 18.7332 27.8631 19.0008 28.8477 19.2023C29.7905 19.3953 30.7143 19.5556 31.3279 19.5582C32.6567 19.5638 33.9598 19.5427 35.117 19.5114C36.699 19.4687 38.0002 20.7263 38.0002 22.2571V32.9082C38.0002 34.3235 36.9073 35.4564 35.539 35.4982C34.2843 35.5365 32.8251 35.5645 31.3391 35.5582C31.0314 35.5569 30.3617 35.4569 29.3823 35.2565C28.4448 35.0646 27.338 34.806 26.2211 34.5385C25.8709 34.4546 25.5188 34.3696 25.1714 34.2857C24.421 34.1046 23.6922 33.9287 23.0512 33.7805C22.1443 33.5707 21.3014 33.3891 20.7969 33.3397C19.1265 33.1759 17.7109 33.0488 16.5547 32.9516C15.1122 32.8302 14.0002 31.6278 14.0002 30.2129V19.5581Z" fill="#64AB80"/>
</svg>
