<svg width="30" height="24" viewBox="0 0 30 24" fill="none" xmlns="http://www.w3.org/2000/svg">
<path d="M6.05979 15.9462C5.5391 16.4669 5.5391 17.3111 6.05979 17.8318C6.58049 18.3525 7.42471 18.3525 7.94541 17.8318L12.4263 13.3509L14.1592 14.7662C14.7038 15.2109 15.5 15.1564 15.9789 14.6416L20.3397 9.95365L22.0299 11.7565C22.5335 12.2937 23.3773 12.3209 23.9145 11.8173C24.4517 11.3136 24.479 10.4699 23.9753 9.93265L21.3087 7.0882C21.056 6.81868 20.7028 6.66607 20.3333 6.66679C19.9639 6.66751 19.6113 6.82148 19.3597 7.09198L14.8778 11.91L13.1793 10.523C12.6491 10.09 11.8772 10.1288 11.3931 10.6129L6.05979 15.9462Z" fill="#64AB80"/>
<path fill-rule="evenodd" clip-rule="evenodd" d="M5.66927 0C2.72375 0 0.335938 2.38782 0.335938 5.33334V18.6667C0.335938 21.6122 2.72375 24 5.66927 24H24.3359C27.2815 24 29.6693 21.6122 29.6693 18.6667V5.33333C29.6693 2.38782 27.2815 0 24.3359 0H5.66927ZM3.0026 5.33334C3.0026 3.86058 4.19651 2.66667 5.66927 2.66667H24.3359C25.8087 2.66667 27.0026 3.86057 27.0026 5.33333V18.6667C27.0026 20.1394 25.8087 21.3333 24.3359 21.3333H5.66927C4.19651 21.3333 3.0026 20.1394 3.0026 18.6667V5.33334Z" fill="#64AB80"/>
</svg>
