<svg width="25" height="24" viewBox="0 0 25 24" fill="none" xmlns="http://www.w3.org/2000/svg">
<path d="M21.8477 6.7174C21.3833 7.33692 20.8219 7.87733 20.1852 8.31776C20.1852 8.47959 20.1852 8.64142 20.1852 8.81225C20.1903 11.7511 19.0164 14.5691 16.9267 16.6345C14.8369 18.6999 12.0061 19.8399 9.06893 19.7989C7.37087 19.8046 5.69455 19.4169 4.1713 18.6661C4.08916 18.6302 4.03619 18.549 4.0365 18.4593V18.3604C4.0365 18.2313 4.14111 18.1267 4.27015 18.1267C5.9393 18.0716 7.5489 17.4929 8.87122 16.4724C7.36041 16.4419 6.00107 15.5469 5.37548 14.1707C5.34389 14.0956 5.35372 14.0093 5.40145 13.9432C5.44917 13.8771 5.52788 13.8407 5.60913 13.8471C6.0683 13.8932 6.53206 13.8505 6.97508 13.7212C5.30727 13.375 4.05409 11.9904 3.87474 10.2957C3.86837 10.2144 3.9048 10.1357 3.97088 10.0879C4.03695 10.0402 4.12312 10.0303 4.19826 10.062C4.64582 10.2595 5.12897 10.3635 5.61812 10.3676C4.15672 9.40846 3.52549 7.58405 4.08143 5.92622C4.13882 5.76513 4.27669 5.64612 4.44438 5.61294C4.61206 5.57975 4.78484 5.63728 4.8992 5.76439C6.87127 7.86325 9.58092 9.11396 12.4568 9.25279C12.3832 8.95885 12.347 8.65676 12.349 8.35372C12.3759 6.76472 13.3591 5.34921 14.8383 4.76987C16.3174 4.19054 17.9998 4.56203 19.0979 5.71044C19.8463 5.56785 20.5699 5.31645 21.2456 4.96421C21.2951 4.93331 21.3579 4.93331 21.4074 4.96421C21.4383 5.01373 21.4383 5.07652 21.4074 5.12604C21.0801 5.87552 20.5272 6.50412 19.8258 6.92419C20.44 6.85296 21.0434 6.70807 21.6231 6.49264C21.6719 6.45942 21.736 6.45942 21.7848 6.49264C21.8257 6.51134 21.8563 6.54711 21.8684 6.59042C21.8805 6.63373 21.8729 6.68018 21.8477 6.7174Z" fill="white"/>
</svg>
